<svg width="124" height="28" viewBox="0 0 124 28" fill="none" xmlns="http://www.w3.org/2000/svg">
<path d="M6.976 22H0.96V0.559999H12.832C17.92 0.559999 21.12 3.472 21.12 8.56C21.12 13.648 17.92 16.592 12.832 16.592H6.976V22ZM12.16 5.968H6.976V11.184H12.16C14.272 11.184 15.136 10.768 15.136 8.56C15.136 6.384 14.272 5.968 12.16 5.968ZM27.6135 22.32C23.9655 22.32 21.9175 20.656 21.9175 17.904C21.9175 15.632 23.4855 14 27.1335 13.648L33.6935 13.008V12.688C33.6935 11.056 32.9895 10.8 30.8455 10.8C28.8615 10.8 28.2535 11.184 28.2535 12.528V12.656H22.2375V12.592C22.2375 8.304 25.8215 5.552 31.2935 5.552C36.9255 5.552 39.6455 8.304 39.6455 12.816V22H34.0135V18.608H33.6935C33.0855 20.88 31.1015 22.32 27.6135 22.32ZM27.9655 17.52C27.9655 18.032 28.4775 18.128 29.4055 18.128C32.3175 18.128 33.5015 17.776 33.6615 16.336L28.7335 16.912C28.1895 16.976 27.9655 17.168 27.9655 17.52ZM44.9808 27.44H42.0688V22H46.7408C47.2208 22 47.6048 21.936 47.8608 21.808L40.1487 5.872H46.9968L49.7808 12.208L50.9328 15.92H51.3488L52.4048 12.144L54.8048 5.872H61.5248L53.8768 22.64C52.1488 26.448 49.6848 27.44 44.9808 27.44ZM67.8108 22H62.1788V0.559999H68.1948V10.032H68.5148C68.9948 7.344 70.7868 5.552 74.5948 5.552C79.3308 5.552 81.9868 8.688 81.9868 13.936C81.9868 19.152 79.2668 22.32 74.3388 22.32C70.5628 22.32 68.6428 20.848 68.1308 17.648H67.8108V22ZM68.1948 13.968C68.1948 16.304 69.4748 16.816 72.1628 16.816C74.9468 16.816 75.9068 16.08 75.9068 13.936C75.9068 11.792 74.9468 11.024 72.1628 11.024C69.4748 11.024 68.1948 11.472 68.1948 13.744V13.968ZM92.513 22.32C86.913 22.32 83.105 19.152 83.105 13.936C83.105 8.688 86.913 5.552 92.513 5.552C98.113 5.552 101.921 8.688 101.921 13.936C101.921 19.152 98.113 22.32 92.513 22.32ZM92.513 17.008C95.233 17.008 95.969 16.272 95.969 13.936C95.969 11.6 95.233 10.832 92.513 10.832C89.793 10.832 89.057 11.6 89.057 13.936C89.057 16.272 89.793 17.008 92.513 17.008ZM109.35 22H102.086L108.102 14.192V13.872L102.086 5.872H109.446L112.742 10.736H113.062L116.23 5.872H123.494L117.478 13.776V14.096L123.494 22H116.134L112.838 17.264H112.518L109.35 22Z" fill="white"/>
</svg>
