<svg width="78" height="12" viewBox="0 0 78 12" fill="none" xmlns="http://www.w3.org/2000/svg">
<path d="M1.488 9H0.72V0.96H1.572V4.728H1.632C1.884 3.708 2.736 2.952 4.164 2.952C6.024 2.952 7.044 4.236 7.044 6.036C7.044 7.836 6.024 9.12 4.092 9.12C2.772 9.12 1.824 8.436 1.548 7.248H1.488V9ZM1.572 6.132C1.572 7.536 2.46 8.34 3.888 8.34C5.304 8.34 6.18 7.752 6.18 6.036C6.18 4.32 5.28 3.744 3.912 3.744C2.412 3.744 1.572 4.56 1.572 6.024V6.132ZM8.87109 11.04H8.12709V10.26H9.02709C9.62709 10.26 9.85509 10.08 10.0831 9.588L10.3711 8.988L7.43109 3.072H8.36709L10.1071 6.6L10.7671 8.052H10.8391L11.4751 6.588L13.1191 3.072H14.0551L10.8391 9.828C10.4071 10.74 9.85509 11.04 8.87109 11.04ZM23.0314 9H17.0794V0.96H17.9314V8.22H23.0314V9ZM24.8454 2.316H23.9934V0.96H24.8454V2.316ZM24.8454 9H23.9934V3.072H24.8454V9ZM27.0466 9H26.2786V0.96H27.1306V4.728H27.1906C27.4426 3.708 28.2946 2.952 29.7226 2.952C31.5826 2.952 32.6026 4.236 32.6026 6.036C32.6026 7.836 31.5826 9.12 29.6506 9.12C28.3306 9.12 27.3826 8.436 27.1066 7.248H27.0466V9ZM27.1306 6.132C27.1306 7.536 28.0186 8.34 29.4466 8.34C30.8626 8.34 31.7386 7.752 31.7386 6.036C31.7386 4.32 30.8386 3.744 29.4706 3.744C27.9706 3.744 27.1306 4.56 27.1306 6.024V6.132ZM36.4697 9.12C34.5617 9.12 33.3497 7.92 33.3497 6.036C33.3497 4.236 34.5497 2.952 36.4577 2.952C38.1977 2.952 39.4337 3.96 39.4337 5.724C39.4337 5.94 39.4097 6.12 39.3737 6.276H34.1537C34.2017 7.608 34.8857 8.412 36.4577 8.412C37.8497 8.412 38.4977 7.896 38.4977 7.032V6.948H39.3497V7.032C39.3497 8.268 38.1257 9.12 36.4697 9.12ZM36.4457 3.66C34.9097 3.66 34.2137 4.452 34.1537 5.748H38.6297C38.6297 5.688 38.6297 5.628 38.6297 5.568C38.6297 4.32 37.8377 3.66 36.4457 3.66ZM41.4158 9H40.5638V3.072H41.3318V4.692H41.3918C41.5718 3.744 42.2438 2.952 43.4798 2.952C44.8478 2.952 45.4478 3.96 45.4478 5.064V5.652H44.5958V5.196C44.5958 4.188 44.1758 3.696 43.1438 3.696C41.9438 3.696 41.4158 4.452 41.4158 5.784V9ZM50.0708 9H48.7868C47.6108 9 46.8548 8.508 46.8548 7.116V3.804H45.7988V3.072H46.8548V1.656H47.7188V3.072H50.0708V3.804H47.7188V7.164C47.7188 7.992 48.1268 8.22 48.9908 8.22H50.0708V9ZM51.7852 11.04H51.0412V10.26H51.9412C52.5412 10.26 52.7692 10.08 52.9972 9.588L53.2852 8.988L50.3452 3.072H51.2812L53.0212 6.6L53.6812 8.052H53.7532L54.3892 6.588L56.0332 3.072H56.9692L53.7532 9.828C53.3212 10.74 52.7692 11.04 51.7852 11.04ZM58.6423 9H57.7903V0.96H61.4863C63.2263 0.96 64.4503 1.956 64.4503 3.672C64.4503 5.4 63.2263 6.396 61.4863 6.396H58.6423V9ZM61.4143 1.74H58.6423V5.616H61.4143C62.8303 5.616 63.5863 5.04 63.5863 3.672C63.5863 2.328 62.8303 1.74 61.4143 1.74ZM67.0163 9.12C65.8523 9.12 65.0603 8.568 65.0603 7.608C65.0603 6.636 65.8643 6.216 66.9683 6.096L69.7883 5.784V5.328C69.7883 4.176 69.2843 3.72 67.9883 3.72C66.7163 3.72 66.0443 4.176 66.0443 5.22V5.268H65.1923V5.22C65.1923 3.972 66.2243 2.952 68.0483 2.952C69.8483 2.952 70.6163 3.984 70.6163 5.292V9H69.8483V7.404H69.7883C69.4403 8.496 68.3963 9.12 67.0163 9.12ZM65.9123 7.548C65.9123 8.148 66.3083 8.46 67.2083 8.46C68.6483 8.46 69.7883 7.824 69.7883 6.396V6.348L67.2323 6.636C66.3443 6.72 65.9123 6.936 65.9123 7.548ZM72.7969 11.04H72.0529V10.26H72.9529C73.5529 10.26 73.7809 10.08 74.0089 9.588L74.2969 8.988L71.3569 3.072H72.2929L74.0329 6.6L74.6929 8.052H74.7649L75.4009 6.588L77.0449 3.072H77.9809L74.7649 9.828C74.3329 10.74 73.7809 11.04 72.7969 11.04Z" fill="white"/>
</svg>
